<?xml version="1.0" encoding="UTF-8"?>
<!DOCTYPE svg PUBLIC "-//W3C//DTD SVG 1.1//EN" "http://www.w3.org/Graphics/SVG/1.1/DTD/svg11.dtd">
<!-- Creator: CorelDRAW -->
<svg xmlns="http://www.w3.org/2000/svg" xml:space="preserve" width="82.359mm" height="10.1105mm" version="1.1" style="shape-rendering:geometricPrecision; text-rendering:geometricPrecision; image-rendering:optimizeQuality; fill-rule:evenodd; clip-rule:evenodd"
viewBox="0 0 8221.66 1009.3"
 xmlns:xlink="http://www.w3.org/1999/xlink"
 xmlns:xodm="http://www.corel.com/coreldraw/odm/2003">
 <defs>
  <style type="text/css">
   <![CDATA[
    .fil0 {fill:white;fill-rule:nonzero}
    .fil1 {fill:white;fill-rule:nonzero}
   ]]>
  </style>
 </defs>
 <g id="Camada_x0020_1">
  <metadata id="CorelCorpID_0Corel-Layer"/>
  <polygon class="fil0" points="-0,680.33 -0,789.27 674.64,789.27 674.64,605.04 315.61,605.04 674.64,178.5 674.64,69.57 -0,69.57 -0,253.8 359.03,253.8 "/>
  <polygon class="fil0" points="2630.59,100.05 2630.59,57.64 2446.35,57.64 2446.35,1009.3 2630.59,1009.3 2630.59,871.45 2630.59,714.55 2630.59,542.25 2630.59,272.36 "/>
  <path class="fil0" d="M3978.42 471.17c0,-11.93 1.32,-26.51 1.32,-41.09 0,-224 -128.56,-384.37 -349.9,-384.37 -217.37,0 -368.47,165.67 -368.47,372.45 0,205.43 151.1,371.12 368.47,371.12 140.5,0 258.45,-58.32 324.73,-148.44l-117.97 -98.08c-39.76,54.34 -110.01,88.8 -185.56,88.8 -110.01,0 -185.56,-66.27 -205.44,-160.37l532.83 0zm-348.59 -278.34c123.26,0 167,78.19 173.63,160.37l-356.54 0c17.23,-88.81 86.15,-160.37 182.91,-160.37z"/>
  <polygon class="fil0" points="4556.18,69.57 4361.34,477.8 4165.18,69.57 3971.66,69.57 4317.6,789.27 4405.07,789.27 4749.69,69.57 "/>
  <path class="fil0" d="M5449.38 471.17c0,-11.93 1.33,-26.51 1.33,-41.09 0,-224 -128.57,-384.37 -349.91,-384.37 -217.37,0 -368.47,165.67 -368.47,372.45 0,205.43 151.1,371.12 368.47,371.12 140.5,0 258.46,-58.32 324.73,-148.44l-117.97 -98.08c-39.76,54.34 -110.01,88.8 -185.56,88.8 -110.01,0 -185.56,-66.27 -205.43,-160.37l532.82 0zm-348.59 -278.34c123.27,0 167,78.19 173.63,160.37l-356.54 0c17.23,-88.81 86.16,-160.37 182.91,-160.37z"/>
  <path class="fil0" d="M5914.48 56.31c-72.9,0 -139.17,21.2 -192.19,58.32l0 -45.06 -184.23 0 0 719.7 184.23 0 0 -510.29c41.09,-35.79 94.11,-57 159.05,-57 102.05,0 156.4,54.35 156.4,165.68l0 401.6 184.23 0 0 -401.6c0,-233.28 -96.75,-331.36 -307.5,-331.36z"/>
  <path class="fil0" d="M6770.58 211.38l0 -152.42 -201.47 0 0 -58.97 -185.56 0 0 58.97 -102.05 0 0 152.42 102.05 0 0 351.24c0,151.1 96.76,226.65 217.37,226.65 103.38,0 159.05,-23.86 167,-26.5l0 -137.84c-25.18,2.65 -53.02,6.62 -84.82,6.62 -92.78,0 -113.99,-37.11 -113.99,-165.67l0 -254.49 201.47 0z"/>
  <path class="fil0" d="M7182.65 45.71c-217.37,0 -393.65,165.67 -393.65,372.45 0,205.43 176.27,371.12 393.65,371.12 217.37,0 393.66,-165.68 393.66,-371.12 0,-206.77 -176.28,-372.45 -393.66,-372.45zm0 577.88c-116.64,0 -212.06,-92.77 -212.06,-205.43 0,-113.98 95.42,-206.77 212.06,-206.77 117.97,0 212.07,92.79 212.07,206.77 0,112.66 -94.11,205.43 -212.07,205.43z"/>
  <path class="fil0" d="M7621.24 720.35c106.04,51.69 186.89,68.92 311.48,68.92 184.23,0 288.94,-90.12 288.94,-226.65 0,-131.21 -96.75,-189.53 -263.76,-224 -115.31,-23.85 -159.04,-42.41 -159.04,-82.17 0,-38.44 35.79,-63.62 106.04,-63.62 64.19,0 136.92,15.99 201.92,38.41 7.46,2.58 46.64,15.69 53.88,18.42l60.97 -135.19c-7.28,-2.96 -46.47,-16.33 -53.96,-19.18 -73.02,-27.78 -156.67,-49.59 -258.84,-49.59 -167,0 -274.36,90.13 -274.36,220.02 0,139.17 112.66,189.53 267.74,224 111.34,23.86 152.43,42.42 152.43,83.5 0,37.12 -33.13,68.92 -117.97,68.92 -90.13,0 -157.73,-19.88 -246.53,-58.31l-68.92 136.51z"/>
  <path class="fil1" d="M1207.34 56.31l-0.55 0 -0.55 0 -135.66 0 -0.55 0 -0.55 0c-210.75,0 -307.5,98.08 -307.5,331.36l0 401.6 184.23 0 0 -401.6c0,-111.34 54.35,-165.68 156.4,-165.68l1.33 0.01 0 -0.01 68.93 0 0 0.01 1.32 -0.01c102.06,0 156.41,54.35 156.41,165.68l0 401.6 184.23 0 0 -401.6c0,-233.28 -96.76,-331.36 -307.5,-331.36z"/>
  <path class="fil1" d="M2051.51 56.31l-0.55 0 -0.55 0 -135.66 0 -0.55 0 -0.55 0c-210.74,0 -307.5,98.08 -307.5,331.36l0 401.6 184.23 0 0 -401.6c0,-111.34 54.35,-165.68 156.4,-165.68l1.33 0.01 0 -0.01 68.93 0 0 0.01 1.33 -0.01c102.05,0 156.4,54.35 156.4,165.68l0 401.6 184.23 0 0 -401.6c0,-233.28 -96.75,-331.36 -307.5,-331.36z"/>
  <path class="fil1" d="M3179.32 483.93l0 -0.55 0 -0.55 0 -116.6 0 -0.55 0 -0.55c0,-210.75 -98.08,-307.5 -331.36,-307.5l-401.6 0 0 184.23 401.6 0c111.34,0 165.68,54.35 165.68,156.4l-0.01 1.33 0.01 0 0 49.87 -0.01 0 0.01 1.33c0.58,102.05 -54.35,156.4 -165.68,156.4l-401.6 0 0 184.23 401.6 0c233.28,0 331.36,-96.75 331.36,-307.5z"/>
  <polygon class="fil0" points="1340.43,605.04 1360.19,605.04 1360.19,420.81 916.63,420.81 916.63,605.04 980.88,605.04 1054.02,605.04 1134.33,605.04 1260.12,605.04 "/>
  <polygon class="fil0" points="2184.6,605.04 2204.36,605.04 2204.36,420.81 1760.8,420.81 1760.8,605.04 1825.05,605.04 1898.18,605.04 1978.49,605.04 2104.29,605.04 "/>
 </g>
</svg>
