<?xml version="1.0" encoding="UTF-8"?>
<!DOCTYPE svg PUBLIC "-//W3C//DTD SVG 1.1//EN" "http://www.w3.org/Graphics/SVG/1.1/DTD/svg11.dtd">
<!-- Creator: CorelDRAW -->
<svg xmlns="http://www.w3.org/2000/svg" xml:space="preserve" width="55.0771mm" height="29.8488mm" version="1.1" style="shape-rendering:geometricPrecision; text-rendering:geometricPrecision; image-rendering:optimizeQuality; fill-rule:evenodd; clip-rule:evenodd"
viewBox="0 0 5490.73 2975.68"
 xmlns:xlink="http://www.w3.org/1999/xlink"
 xmlns:xodm="http://www.corel.com/coreldraw/odm/2003">
 <defs>
  <style type="text/css">
   <![CDATA[
    .fil0 {fill:url(#id0)}
   ]]>
  </style>
  <linearGradient id="id0" gradientUnits="userSpaceOnUse" x1="580.01" y1="225.78" x2="4914.3" y2="2749.89">
   <stop offset="0" style="stop-opacity:1; stop-color:#FFB400"/>
   <stop offset="1" style="stop-opacity:1; stop-color:#FF4800"/>
  </linearGradient>
 </defs>
 <g id="Camada_x0020_1">
  <metadata id="CorelCorpID_0Corel-Layer"/>
  <path class="fil0" d="M4864.99 880.28c-47.77,-99.12 -117.9,-195.8 -216.65,-241.62 -38.67,-17.94 -89.86,-29.4 -131.54,-37.95 -63.2,-12.98 -127.61,-22.37 -191.62,-30.42 -117.55,-14.77 -235.65,-24.64 -353.78,-33.27 -417.15,-30.47 -836.18,-36.08 -1254.29,-32.03 -413.44,3.98 -827.17,17.91 -1239.4,50.64 -111.22,8.83 -222.19,17.32 -333.11,29.8 -60.65,6.82 -121.57,14.62 -181.69,25.24 -39.35,6.96 -85.83,15.67 -123.51,29.9 -112.79,54.35 -187.51,175.2 -233.71,286.95 -63.66,153.98 -92.37,332.13 -98.08,498.01 -0.58,16.53 -0.67,40.45 -12.02,52.78 -10.11,10.96 -29.21,13.63 -39.86,14.88 -126.05,14.77 -252.56,28.19 -379.34,34.48 -18.91,0.97 -50.08,3.55 -63.69,-9.62 -17.93,-17.33 -11.86,-86.57 -11.13,-113.35 12.6,-452.26 195.68,-1021.64 629.87,-1223.07 81.12,-37.63 203.6,-57.76 291.87,-71.58 156.64,-24.54 316.19,-40.28 474.16,-53.36 424.81,-35.22 855.06,-50.37 1281.24,-55.15 436.83,-4.88 879.4,0.83 1315.23,31.99 172.19,12.31 346.46,28.58 516.9,56.39 111.32,18.17 246.83,44.08 349.49,91.72 300.77,139.55 831.05,890.99 447.03,1094.55 -123.95,48.55 -230.36,85.63 -375.68,131.99 -191.44,61.08 -385.29,115.3 -579.88,165.41 -434.4,111.83 -875.29,204.25 -1316.24,286.26 -443.19,82.44 -888.78,154.25 -1335.21,216.86 -336.3,47.16 -674.18,89.69 -1012.25,123.56 39.97,56 89.89,105.24 151.28,134.84 37.67,14.23 84.16,22.94 123.51,29.9 60.11,10.62 121.04,18.42 181.69,25.24 110.92,12.48 221.89,20.97 333.11,29.8 412.23,32.72 825.96,46.67 1239.4,50.64 418.11,4.05 837.14,-1.57 1254.29,-32.03 118.12,-8.62 236.23,-18.49 353.78,-33.27 64,-8.05 128.41,-17.44 191.62,-30.42 41.68,-8.56 92.87,-20.01 131.54,-37.95 211.32,-98.04 305.46,-436.45 325.74,-649.45 1.58,-14.28 2.98,-30.88 12.27,-41.8 9.15,-10.76 26.19,-15.07 39.74,-18.91 123.36,-34.61 246.57,-71.38 367.77,-112.93 23.81,-8.16 64.35,-24.5 82.47,-10.96 19.8,14.81 13.75,60.15 12.77,82.21 -19.71,446.36 -190.3,1005.43 -628.75,1208.86 -102.66,47.63 -238.17,73.54 -349.49,91.72 -170.44,27.8 -344.71,44.07 -516.9,56.39 -435.83,31.16 -878.4,36.88 -1315.23,31.98 -426.18,-4.77 -856.43,-19.92 -1281.24,-55.14 -157.97,-13.09 -317.53,-28.82 -474.16,-53.36 -88.27,-13.83 -210.75,-33.95 -291.87,-71.58 -405.83,-188.29 -546.69,-712.42 -561.61,-768.28 -35.45,-132.13 69.95,-272.84 201.68,-296.75 251.1,-18.12 502.37,-45.77 751.4,-78.93 554.31,-73.77 1106.11,-166.3 1655.78,-268.81 551.76,-102.92 1102.6,-215.42 1646.91,-352.84 180.06,-45.46 361.8,-92.43 539.38,-148.15z"/>
 </g>
</svg>
